<svg xmlns="http://www.w3.org/2000/svg" width="123" height="123" viewBox="0 0 123 123">
  <g id="Grupo_871" data-name="Grupo 871" transform="translate(-447 -2361)">
    <g id="Elipse_547" data-name="Elipse 547" transform="translate(447 2361)" fill="#92d4e3" stroke="#4bbcc7" stroke-width="3">
      <circle cx="61.5" cy="61.5" r="61.5" stroke="none"/>
      <circle cx="61.5" cy="61.5" r="60" fill="none"/>
    </g>
    <g id="Grupo_870" data-name="Grupo 870" transform="translate(454 2366)">
      <path id="Trazado_11120" data-name="Trazado 11120" d="M92.576,60.318l1.418-15.6a1.3,1.3,0,0,0-.07-.555l-6.5-18.2a1.3,1.3,0,0,0-.368-.541l-10.4-9.1A1.3,1.3,0,0,0,75.8,16H64.1a1.3,1.3,0,0,0-.512.105h0A21.684,21.684,0,0,1,55,17.869,21.684,21.684,0,0,1,46.412,16.1h0A1.3,1.3,0,0,0,45.9,16H34.2a1.3,1.3,0,0,0-.856.322l-5.943,5.2,1.713,1.957L34.688,18.6H44.95c1.507,4.091,5.193,6.5,10.05,6.5s8.543-2.409,10.05-6.5H75.311l9.778,8.556,6.29,17.612L89.987,60.082ZM55,22.5c-3.494,0-5.475-1.438-6.591-2.938A24.266,24.266,0,0,0,55,20.469a24.266,24.266,0,0,0,6.591-.907C60.474,21.062,58.494,22.5,55,22.5ZM27.256,25.1l-1.712-1.957-2.6,2.275a1.3,1.3,0,0,0-.368.541l-6.5,18.2a1.3,1.3,0,0,0-.07.555L18.6,73.258V78.4a1.3,1.3,0,0,0,1.3,1.3h5.515l-.8,6.389A6.071,6.071,0,0,1,18.6,91.4V94a8.675,8.675,0,0,0,8.6-7.589l.839-6.711H29a1.3,1.3,0,0,0,1.3-1.3V73.255L31,64.8a6.043,6.043,0,0,1,2.1-1.5L31.6,92.633A1.3,1.3,0,0,0,32.833,94l.067,0H77.1a1.3,1.3,0,0,0,1.3-1.3c0-.022,0-.045,0-.067l-1.5-29.341a6.043,6.043,0,0,1,2.1,1.5l.7,8.458V78.4A1.3,1.3,0,0,0,81,79.7h.965l.839,6.711A8.675,8.675,0,0,0,91.4,94V91.4a6.072,6.072,0,0,1-6.016-5.311l-.8-6.389H90.1a1.3,1.3,0,0,0,1.3-1.3V73.258l.94-10.341-2.589-.236L88.913,71.9H82.2L80.722,54.211l.141.07,6.5-13-2.325-1.163-4.705,9.411-.624-7.481a44.973,44.973,0,0,0-.034-14.6l-2.55.509A43.1,43.1,0,0,1,77.281,40.7h-1.5a45.453,45.453,0,0,0-4.017-17.481L69.437,24.38A43.809,43.809,0,0,1,73.2,42h0c0,.022,0,.044,0,.067L75.731,91.4H34.268L36.8,42.067c0-.022,0-.044,0-.066h0c0-.139.046-13.928,3.64-18.72l-2.08-1.56C34.923,26.3,34.325,36.968,34.222,40.7H32.755a54.724,54.724,0,0,1-.359-9.467,15.135,15.135,0,0,1,.44-3.131l-2.47-.812c-.057.17-1.366,4.267-.073,14.736l-.859,10.305-5.82-9.7-2.229,1.338,7.68,12.8L27.8,71.9H21.087L18.62,44.768l6.29-17.612ZM82.3,74.5h6.5v2.6H82.3ZM77.2,43.3l1.5,17.986A8.609,8.609,0,0,0,76.75,60.5l-.882-17.2ZM32.8,43.3h1.335l-.882,17.2a8.609,8.609,0,0,0-1.952.788ZM21.2,74.5h6.5v2.6H21.2ZM53.7,27.7h2.6V88.8H53.7Zm-15.6,26h13v2.6h-13Zm20.8,0h13v2.6h-13Z" transform="translate(0 0)" fill="#1b8da7"/>
    </g>
  </g>
</svg>
