<svg xmlns="http://www.w3.org/2000/svg" width="123" height="123" viewBox="0 0 123 123">
  <g id="Grupo_872" data-name="Grupo 872" transform="translate(-390 -2736)">
    <g id="Elipse_547" data-name="Elipse 547" transform="translate(390 2736)" fill="#92d4e3" stroke="#4bbcc7" stroke-width="3">
      <circle cx="61.5" cy="61.5" r="61.5" stroke="none"/>
      <circle cx="61.5" cy="61.5" r="60" fill="none"/>
    </g>
    <path id="Trazado_11121" data-name="Trazado 11121" d="M77.656,29.342a.571.571,0,0,0,0-.114,9.42,9.42,0,0,0-7.693-7.792l-2.143-.363a48.787,48.787,0,0,0-.114-10.722C66.873,5.573,63.428,0,56.333,0S45.793,5.573,44.975,10.351a48.858,48.858,0,0,0-.114,10.73l-2.143.356a9.42,9.42,0,0,0-7.693,7.792.57.57,0,0,0,0,.114L32.428,58.3a1.515,1.515,0,0,0,1.348,1.636l7.829.863-.416,34.6A1.514,1.514,0,0,0,42.7,96.922H69.963a1.514,1.514,0,0,0,1.514-1.514l-.416-34.559,7.829-.878a1.513,1.513,0,0,0,1.348-1.664v0ZM48,10.851c.288-1.832,1.795-7.822,8.329-7.822s8.041,5.989,8.329,7.822a45.76,45.76,0,0,1,.1,9.722l-.606-.129a1.377,1.377,0,0,0-.25,0h-2.87a10.444,10.444,0,0,0,1.355-5.3c0-2.06,0-8.329-6.058-8.329s-6.058,6.27-6.058,8.329a10.444,10.444,0,0,0,1.355,5.3h-2.87a1.462,1.462,0,0,0-.257,0l-.636.106A45.253,45.253,0,0,1,48,10.851Zm5.3,4.293c0-4.892,1.431-5.3,3.029-5.3s3.029.409,3.029,5.3c0,3.127-1.6,5.3-3.029,5.3S53.3,18.271,53.3,15.144ZM35.578,57.123l2.446-27.456a6.391,6.391,0,0,1,5.217-5.247l5.656-.947h5.921V46.189H44.808l.167-13.63a1.514,1.514,0,1,0-3.029,0l-.3,25.245Zm9.2-7.905H54.819V93.893h-10.6ZM57.848,93.893V49.218H67.888l.56,44.675Zm13.175-36.1-.3-25.23a1.514,1.514,0,0,0-1.514-1.514h0a1.514,1.514,0,0,0-1.514,1.514l.167,13.63H57.848V23.473h5.929l5.649.947a6.391,6.391,0,0,1,5.217,5.247l2.446,27.456Z" transform="translate(395.769 2747.823)" fill="#1b8da7"/>
    <rect id="Rectángulo_18" data-name="Rectángulo 18" width="16" height="3" transform="translate(430 2829)" fill="#92d4e3"/>
    <rect id="Rectángulo_19" data-name="Rectángulo 19" width="16" height="3" transform="translate(468 2782)" fill="#92d4e3"/>
    <rect id="Rectángulo_20" data-name="Rectángulo 20" width="16" height="3" transform="translate(416 2795)" fill="#92d4e3"/>
  </g>
</svg>
