<svg xmlns="http://www.w3.org/2000/svg" width="412.391" height="292" viewBox="0 0 412.391 292">
  <g id="Grupo_1400" data-name="Grupo 1400" transform="translate(-1107.609 -36)">
    <g id="Grupo_883" data-name="Grupo 883" transform="translate(93.755 -353.943)">
      <circle id="Elipse_497" data-name="Elipse 497" cx="146" cy="146" r="146" transform="translate(1076.245 389.943)" fill="#b6eaf5"/>
      <g id="Elipse_513" data-name="Elipse 513" transform="translate(1097.245 410.943)" fill="none" stroke="#273045" stroke-linecap="round" stroke-width="3" stroke-dasharray="6" opacity="0.5">
        <circle cx="125" cy="125" r="125" stroke="none"/>
        <circle cx="125" cy="125" r="123.5" fill="none"/>
      </g>
    </g>
    <g id="Grupo_870" data-name="Grupo 870" transform="translate(1109.609 55.285)">
      <g id="Grupo_882" data-name="Grupo 882" transform="translate(0 0)">
        <g id="Grupo_881" data-name="Grupo 881">
          <g id="Grupo_879" data-name="Grupo 879">
            <path id="Trazado_11133" data-name="Trazado 11133" d="M580.288,2658.229c0,10.115-1.335,16.183-12.137,16.183-3.722,0-6.311-.727-8.092-2.1-3.479-2.553-4.046-7.448-4.046-14.082,0-12.137,6.069-20.229,12.137-20.229S580.288,2646.091,580.288,2658.229Z" transform="translate(-503.418 -2625.862)" fill="#fff"/>
            <path id="Trazado_11134" data-name="Trazado 11134" d="M508.654,2660.447c1.78,1.375,4.37,2.1,8.091,2.1,10.8,0,12.137-6.069,12.137-16.183,0-12.137-6.069-20.229-12.137-20.229s-12.137,8.092-12.137,20.229C504.608,2653,505.175,2657.895,508.654,2660.447Zm72.824,111.338-16.183,4.046c-5.825-18.368-16.183-64.732-16.183-64.732v145.647H528.883l-12.137-68.778-12.137,68.778H484.379V2711.1s-10.357,46.364-16.183,64.732l-16.183-4.046c5.057-46.123,12.258-77.557,16.183-84.961,5.381-10.114,20.229-14.485,20.229-24.275,0-33.7,10.439-48.549,28.32-48.549s28.32,14.848,28.32,48.549c0,9.79,14.848,14.16,20.229,24.275C569.22,2694.228,576.42,2725.662,581.478,2771.785Z" transform="translate(-452.013 -2614)" fill="#5fe0ed"/>
          </g>
          <g id="Grupo_880" data-name="Grupo 880">
            <path id="Trazado_11135" data-name="Trazado 11135" d="M516.745,2614c17.882,0,28.32,14.848,28.32,48.549,0,9.79,14.848,14.16,20.229,24.275,3.925,7.4,11.126,38.838,16.183,84.961l-16.183,4.046c-5.825-18.368-16.183-64.732-16.183-64.732v145.647H528.883l-12.137-68.778-12.137,68.778H484.379V2711.1s-10.357,46.364-16.183,64.732l-16.183-4.046c5.057-46.123,12.258-77.557,16.183-84.961,5.381-10.114,20.229-14.485,20.229-24.275C488.425,2628.847,498.863,2614,516.745,2614Z" transform="translate(-452.013 -2614)" fill="none" stroke="#303e58" stroke-linecap="round" stroke-linejoin="round" stroke-width="4"/>
            <path id="Trazado_11136" data-name="Trazado 11136" d="M568.15,2638c6.069,0,12.137,8.092,12.137,20.229,0,10.115-1.335,16.183-12.137,16.183-3.722,0-6.311-.727-8.092-2.1-3.479-2.553-4.046-7.448-4.046-14.082C556.013,2646.091,562.082,2638,568.15,2638Z" transform="translate(-503.418 -2625.862)" fill="none" stroke="#303e58" stroke-linecap="round" stroke-linejoin="round" stroke-width="4"/>
            <line id="Línea_1" data-name="Línea 1" y1="103.246" transform="translate(56.641 46.447)" fill="none" stroke="#303e58" stroke-linecap="round" stroke-linejoin="round" stroke-width="4"/>
          </g>
        </g>
      </g>
    </g>
    <g id="Grupo_871" data-name="Grupo 871" transform="translate(1370.526 102.649)">
      <g id="Grupo_877" data-name="Grupo 877">
        <g id="Grupo_876" data-name="Grupo 876">
          <g id="Grupo_874" data-name="Grupo 874">
            <path id="Trazado_11122" data-name="Trazado 11122" d="M1406.65,2701.143c-2.011-2.615-2.245-12.87-1.842-23.461h-.034c-6.033,27.716-15.15,48.632-20.043,50.71l-16.557-4.157a500.736,500.736,0,0,1,11.049-56.678c4.719-18.269,9.083-29.919,10.67-33.447,5.06-11.263,30.165-20.11,30.165-20.11a33.485,33.485,0,0,0,40.22,0s25.1,8.847,30.165,20.11c2.849,6.333,14.647,38.846,21.719,90.125l-16.557,4.157c-4.893-2.079-14.011-22.994-20.043-50.71h-.034c.4,10.592.168,20.846-1.843,23.461,0,7.106,10.055,15.652,10.055,113.957H1396.6C1396.6,2716.8,1406.65,2708.249,1406.65,2701.143Z" transform="translate(-1366.43 -2614)" fill="#5fe0ed"/>
            <path id="Trazado_11123" data-name="Trazado 11123" d="M1382.313,2881.274l-4.893,12.971-13.407-3.352c.537-4.726,1.107-9.351,1.743-13.777Z" transform="translate(-1364.013 -2766.882)" fill="#fff"/>
            <path id="Trazado_11124" data-name="Trazado 11124" d="M1690.634,2890.894l-13.407,3.352-4.893-12.971,16.557-4.157C1689.528,2881.542,1690.1,2886.167,1690.634,2890.894Z" transform="translate(-1543.16 -2766.882)" fill="#fff"/>
          </g>
          <g id="Grupo_875" data-name="Grupo 875">
            <path id="Trazado_11125" data-name="Trazado 11125" d="M1588.013,2614s25.1,8.847,30.165,20.11c2.849,6.333,14.647,38.846,21.719,90.125.637,4.426,1.206,9.051,1.743,13.777l-13.407,3.352-4.893-12.971c-4.893-2.079-14.011-22.994-20.043-50.71" transform="translate(-1494.166 -2614)" fill="none" stroke="#303e58" stroke-linecap="round" stroke-linejoin="round" stroke-width="4"/>
            <path id="Trazado_11126" data-name="Trazado 11126" d="M1417.64,2614s-25.1,8.847-30.165,20.11c-2.849,6.333-14.647,38.846-21.719,90.125-.636,4.426-1.206,9.051-1.743,13.777l13.407,3.352,4.893-12.971c4.894-2.079,14.01-22.994,20.043-50.71" transform="translate(-1364.013 -2614)" fill="none" stroke="#303e58" stroke-linecap="round" stroke-linejoin="round" stroke-width="4"/>
            <path id="Trazado_11127" data-name="Trazado 11127" d="M1513.1,2702s1.408,13.643,1.843,26.813c.4,10.592.169,20.846-1.843,23.461,0,7.106,10.055,15.652,10.055,113.957h-87.143c0-98.3,10.055-106.851,10.055-113.957-2.011-2.615-2.245-12.87-1.843-23.461.435-13.171,1.843-26.813,1.843-26.813" transform="translate(-1405.848 -2665.132)" fill="none" stroke="#303e58" stroke-linecap="round" stroke-linejoin="round" stroke-width="4"/>
            <path id="Trazado_11128" data-name="Trazado 11128" d="M1672.333,2881.274l16.557-4.157h.067" transform="translate(-1543.16 -2766.882)" fill="none" stroke="#303e58" stroke-linecap="round" stroke-linejoin="round" stroke-width="4"/>
            <path id="Trazado_11129" data-name="Trazado 11129" d="M1384.637,2881.274l-16.557-4.157h-.067" transform="translate(-1366.337 -2766.882)" fill="none" stroke="#303e58" stroke-linecap="round" stroke-linejoin="round" stroke-width="4"/>
            <path id="Trazado_11130" data-name="Trazado 11130" d="M1492.013,2614a33.485,33.485,0,0,0,40.22,0" transform="translate(-1438.386 -2614)" fill="none" stroke="#303e58" stroke-linecap="round" stroke-linejoin="round" stroke-width="4"/>
            <path id="Trazado_11131" data-name="Trazado 11131" d="M1515.294,2825.018a169.076,169.076,0,0,0,43.873-3.018" transform="translate(-1451.913 -2734.857)" fill="none" stroke="#303e58" stroke-linecap="round" stroke-linejoin="round" stroke-width="4"/>
            <path id="Trazado_11132" data-name="Trazado 11132" d="M1460.013,2822c2.581.537,5.162.972,7.743,1.375" transform="translate(-1419.793 -2734.857)" fill="none" stroke="#303e58" stroke-linecap="round" stroke-linejoin="round" stroke-width="4"/>
          </g>
        </g>
      </g>
    </g>
    <circle id="Elipse_548" data-name="Elipse 548" cx="54.5" cy="54.5" r="54.5" transform="translate(1255 144)" fill="#e3f9fd"/>
    <g id="Grupo_886" data-name="Grupo 886" transform="translate(1189.216 -743.135)">
      <path id="Trazado_11139" data-name="Trazado 11139" d="M4996.289,5816.654,4984.3,5828.64a1.632,1.632,0,0,1-2.312,0l-3.822-3.822,14.3-14.3,3.821,3.821A1.631,1.631,0,0,1,4996.289,5816.654Z" transform="translate(-4845.591 -4845.593)" fill="#273045"/>
      <path id="Trazado_11140" data-name="Trazado 11140" d="M886.684,1473.619l2.171,2.171-28.521,9,4.18-4.18Z" transform="translate(-774.083 -557.483)" fill="#273045"/>
      <path id="Trazado_11141" data-name="Trazado 11141" d="M1574.375,1109.8l2.171,2.171-16.556,5.222,4.18-4.18Z" transform="translate(-1465.867 -197.755)" fill="#273045"/>
      <path id="Trazado_11142" data-name="Trazado 11142" d="M2259.646,956.144a4.224,4.224,0,0,1,3.789-1.194Z" transform="translate(-2157.652 -44.579)" fill="#273045"/>
      <path id="Trazado_11143" data-name="Trazado 11143" d="M179.98,1852.313a4.113,4.113,0,0,1,.586-.727l3.376-3.376,34.134-10.77,2.171,2.182Z" transform="translate(-101.382 -917.211)" fill="#273045"/>
      <path id="Trazado_11144" data-name="Trazado 11144" d="M126.156,2218.207a4.112,4.112,0,0,1-1.183-2.486l42.808-13.5,2.182,2.171Z" transform="translate(-46.994 -1277.893)" fill="#273045"/>
      <path id="Trazado_11145" data-name="Trazado 11145" d="M403.146,2582.039l-2.171-2.182,43.807-13.809,2.171,2.171Z" transform="translate(-319.891 -1637.621)" fill="#273045"/>
      <path id="Trazado_11146" data-name="Trazado 11146" d="M766.967,2945.86l-2.171-2.171,43.807-13.821,2.171,2.182Z" transform="translate(-679.618 -1997.349)" fill="#273045"/>
      <path id="Trazado_11147" data-name="Trazado 11147" d="M1130.788,3310.635l-2.171-2.171,43.807-13.81,2.182,2.171Z" transform="translate(-1039.346 -2358.031)" fill="#273045"/>
      <path id="Trazado_11148" data-name="Trazado 11148" d="M1494.62,3674.456l-2.182-2.171,43.818-13.81,2.171,2.171Z" transform="translate(-1399.074 -2717.759)" fill="#273045"/>
      <path id="Trazado_11149" data-name="Trazado 11149" d="M1859.4,4038.287l-2.172-2.171,43.807-13.821,2.171,2.171Z" transform="translate(-1759.757 -3077.486)" fill="#273045"/>
      <path id="Trazado_11150" data-name="Trazado 11150" d="M2223.215,4402.108l-2.171-2.171,43.807-13.82,2.182,2.182Z" transform="translate(-2119.484 -3437.214)" fill="#273045"/>
      <path id="Trazado_11151" data-name="Trazado 11151" d="M2587.048,4766.883l-2.182-2.171,43.818-13.81a4.16,4.16,0,0,1,1.173,2.486Z" transform="translate(-2479.212 -3797.897)" fill="#273045"/>
      <path id="Trazado_11152" data-name="Trazado 11152" d="M3315.643,5918.193l-2.171-2.171,28.521-9-4.18,4.181Z" transform="translate(-3199.622 -4941.01)" fill="#273045"/>
      <path id="Trazado_11153" data-name="Trazado 11153" d="M3679.463,6614.072l-2.171-2.171,16.557-5.222-4.169,4.179Z" transform="translate(-3559.349 -5632.795)" fill="#273045"/>
      <path id="Trazado_11154" data-name="Trazado 11154" d="M4116.315,7306.332a4.21,4.21,0,0,1-3.789,1.194Z" transform="translate(-3989.687 -6324.577)" fill="#273045"/>
      <path id="Trazado_11155" data-name="Trazado 11155" d="M2985.956,5218.226,2951.822,5229l-2.171-2.182,40.268-12.692A35.1,35.1,0,0,1,2985.956,5218.226Z" transform="translate(-2839.894 -4255.905)" fill="#273045"/>
      <path id="Trazado_11156" data-name="Trazado 11156" d="M77.925,922.26l11.986-11.986a1.632,1.632,0,0,1,2.312,0l3.822,3.822-14.3,14.3-3.822-3.822A1.632,1.632,0,0,1,77.925,922.26Z" transform="translate(0 0)" fill="#273045"/>
    </g>
    <g id="Grupo_917" data-name="Grupo 917" transform="translate(1297.449 163.447)">
      <g id="Grupo_884" data-name="Grupo 884" transform="translate(9.457 -32.799)">
        <path id="Trazado_11137" data-name="Trazado 11137" d="M46.2,57.812,61.3,69a8.41,8.41,0,0,0,11.813-1.748L53.33,52.5Z" transform="translate(-15.623 -27.826)" fill="#273045"/>
        <path id="Trazado_11138" data-name="Trazado 11138" d="M59.876,23.561a8.463,8.463,0,0,0-11.813-1.748l-17.475,13-7.41-5.522a2.189,2.189,0,0,1-.839-1.678v-.489a10.05,10.05,0,1,0-5.872,9.017,1.9,1.9,0,0,1,2.1.21l4.893,3.635-4.893,3.635a2.062,2.062,0,0,1-2.1.21,9.861,9.861,0,0,0-5.382-.769A9.933,9.933,0,1,0,22.339,52.78V52.36a2.085,2.085,0,0,1,.839-1.678ZM12.413,31.32A4.124,4.124,0,1,1,16.537,27.2,4.088,4.088,0,0,1,12.413,31.32Zm0,25.863a4.124,4.124,0,1,1,4.124-4.124A4.088,4.088,0,0,1,12.413,57.184Z" transform="translate(-2.457 -17.201)" fill="#273045"/>
      </g>
    </g>
    <g id="Grupo_1273" data-name="Grupo 1273" transform="translate(1266.176 75.285)">
      <g id="Grupo_1128" data-name="Grupo 1128" transform="translate(0.432)">
        <g id="Grupo_1127" data-name="Grupo 1127">
          <path id="Trazado_11536" data-name="Trazado 11536" d="M1004.14,691.033c-2.777,1.541-5.577,3.033-8.389,4.5q-2.1,1.109-4.223,2.189t-4.237,2.16q-8.484,4.3-17.059,8.4c-5.718,2.733-11.46,5.416-17.2,8.094l-8.59,4.059-2.128,1.025a9.6,9.6,0,0,0-1.776,1.122,5.684,5.684,0,0,0-2.087,3.228,1.243,1.243,0,1,1-2.427-.537v-.006a7.925,7.925,0,0,1,1.09-2.586,8.563,8.563,0,0,1,.858-1.1,9.55,9.55,0,0,1,1-.931,12.1,12.1,0,0,1,2.232-1.416l2.147-1.054,8.568-4.138q8.557-4.15,17.158-8.2,8.618-4.017,17.322-7.853,2.173-.965,4.36-1.9t4.374-1.87c2.92-1.238,5.852-2.452,8.807-3.615a.237.237,0,0,1,.2.427Z" transform="translate(-935.991 -690.59)" fill="#273045"/>
        </g>
      </g>
      <path id="Trazado_11537" data-name="Trazado 11537" d="M966.66,831.666a1.269,1.269,0,0,1-.131-2.532l59.414-6.244a1.269,1.269,0,0,1,.265,2.525l-59.414,6.244A1.282,1.282,0,0,1,966.66,831.666Z" transform="translate(-957.45 -789.089)" fill="#273045"/>
      <g id="Grupo_1129" data-name="Grupo 1129" transform="translate(75.541 23.216)">
        <line id="Línea_37" data-name="Línea 37" x2="5.842" y2="6.076" transform="translate(1.269 1.269)" fill="#fff"/>
        <path id="Trazado_11538" data-name="Trazado 11538" d="M1237.13,790.089a1.265,1.265,0,0,1-.915-.39l-5.842-6.076a1.269,1.269,0,0,1,1.83-1.76l5.842,6.076a1.269,1.269,0,0,1-.915,2.149Z" transform="translate(-1230.019 -781.475)" fill="#273045"/>
      </g>
      <g id="Grupo_1130" data-name="Grupo 1130" transform="translate(65.969 18.443)">
        <path id="Trazado_11539" data-name="Trazado 11539" d="M1202.909,772.75l-1.963,7.412a.228.228,0,0,1-.439-.005l-2.984-12.4" transform="translate(-1196.252 -766.488)" fill="#fff"/>
        <path id="Trazado_11540" data-name="Trazado 11540" d="M1197.026,777.9h-.018a1.5,1.5,0,0,1-1.432-1.127l-2.989-12.415a1.269,1.269,0,0,1,2.469-.594l2.019,8.388.907-3.424a1.269,1.269,0,0,1,2.454.65l-1.963,7.413A1.5,1.5,0,0,1,1197.026,777.9Z" transform="translate(-1192.551 -762.788)" fill="#273045"/>
      </g>
      <g id="Grupo_1131" data-name="Grupo 1131" transform="translate(0 28.023)">
        <circle id="Elipse_574" data-name="Elipse 574" cx="6.018" cy="6.018" r="6.018" transform="translate(0 11.507) rotate(-72.936)" fill="#99f8ff"/>
        <path id="Trazado_11541" data-name="Trazado 11541" d="M942.48,815.771a7.288,7.288,0,1,1,7.267-7.986h0a7.3,7.3,0,0,1-6.557,7.951Q942.833,815.771,942.48,815.771Zm.017-12.037q-.227,0-.458.022a4.749,4.749,0,1,0,5.182,4.273h0A4.756,4.756,0,0,0,942.5,803.734Z" transform="translate(-934.973 -800.963)" fill="#273045"/>
      </g>
      <g id="Grupo_1132" data-name="Grupo 1132" transform="translate(65.898 14.781)">
        <path id="Trazado_11542" data-name="Trazado 11542" d="M1216.025,760.192l-11.581,1.675a4.055,4.055,0,0,1-3.2-.913c-1.006-.849-2.255-1.906-2.657-2.268a4.5,4.5,0,0,1-1.333-2.24.573.573,0,0,1,.476-.713c2.647-.368,13.5-1.877,16.213-2.269,3.094-.448,7.046,2.851,7.963,9.194s-2.306,8.625-6.7,9.341c-3.8.617-12.9,2-15.191,2.351a.57.57,0,0,1-.65-.485l-.484-3.348a.573.573,0,0,1,.485-.649l14.749-2.133C1217.673,767.219,1216.025,760.192,1216.025,760.192Z" transform="translate(-1195.971 -752.154)" fill="#99f8ff"/>
        <path id="Trazado_11543" data-name="Trazado 11543" d="M1196.226,771.924a1.84,1.84,0,0,1-1.816-1.58l-.484-3.348a1.845,1.845,0,0,1,1.559-2.087l14.749-2.133a.934.934,0,0,0,.694-.435c.621-.909.587-2.874.37-4.42l-10.372,1.5a5.332,5.332,0,0,1-4.2-1.2c-1.451-1.224-2.355-2-2.687-2.295a5.75,5.75,0,0,1-1.715-2.872,1.843,1.843,0,0,1,1.532-2.282c3.135-.436,13.569-1.887,16.206-2.268a6.95,6.95,0,0,1,5.9,2.43,13.961,13.961,0,0,1,3.5,7.838c.892,6.168-1.718,9.794-7.757,10.775-2.468.4-7.529,1.185-15.043,2.328l-.161.024A1.873,1.873,0,0,1,1196.226,771.924Zm.312-4.6.284,1.965c7.21-1.1,12.08-1.852,14.481-2.243,4.654-.757,6.344-3.121,5.652-7.906a11.813,11.813,0,0,0-2.827-6.449,4.553,4.553,0,0,0-3.7-1.67c-2.437.352-11.5,1.614-15.36,2.15a3.072,3.072,0,0,0,.672.871c.215.193.845.739,2.626,2.242a2.789,2.789,0,0,0,2.2.627l11.581-1.675a1.27,1.27,0,0,1,1.418.966c.121.517,1.135,5.119-.535,7.569a3.473,3.473,0,0,1-2.429,1.518Z" transform="translate(-1192.272 -748.453)" fill="#273045"/>
      </g>
    </g>
  </g>
</svg>
